<?xml version="1.0" encoding="utf-8"?>
<!-- Generator: Adobe Illustrator 16.0.0, SVG Export Plug-In . SVG Version: 6.00 Build 0)  -->
<!DOCTYPE svg PUBLIC "-//W3C//DTD SVG 1.1//EN" "http://www.w3.org/Graphics/SVG/1.1/DTD/svg11.dtd">
<svg version="1.1" id="Layer_2" xmlns="http://www.w3.org/2000/svg" xmlns:xlink="http://www.w3.org/1999/xlink" x="0px" y="0px"
	 width="119.664px" height="40px" viewBox="0 0 119.664 40" enable-background="new 0 0 119.664 40" xml:space="preserve">
<g id="bg">
	<path fill="#A6A6A6" d="M110.135,0H9.535C9.168,0,8.806,0,8.44,0.002C8.134,0.004,7.83,0.01,7.521,0.015
		C6.85,0.022,6.18,0.082,5.517,0.191C4.855,0.304,4.215,0.515,3.616,0.818C3.019,1.125,2.472,1.522,1.998,1.997
		C1.521,2.471,1.123,3.018,0.819,3.618C0.516,4.217,0.305,4.859,0.194,5.521C0.083,6.183,0.023,6.853,0.015,7.523
		C0.006,7.83,0.005,8.138,0,8.444v23.114c0.005,0.311,0.006,0.611,0.015,0.922c0.008,0.671,0.068,1.34,0.179,2.002
		c0.11,0.663,0.321,1.305,0.625,1.904c0.303,0.598,0.701,1.144,1.178,1.614c0.473,0.478,1.02,0.875,1.619,1.179
		c0.599,0.305,1.239,0.518,1.901,0.631c0.663,0.109,1.333,0.168,2.004,0.177c0.309,0.007,0.613,0.011,0.919,0.011
		C8.806,40,9.168,40,9.535,40h100.6c0.359,0,0.725,0,1.084-0.002c0.305,0,0.617-0.004,0.922-0.011c0.67-0.009,1.339-0.067,2-0.177
		c0.664-0.115,1.307-0.327,1.908-0.631c0.599-0.304,1.145-0.701,1.617-1.179c0.477-0.473,0.875-1.018,1.182-1.614
		c0.302-0.6,0.511-1.242,0.619-1.904c0.111-0.662,0.174-1.331,0.186-2.002c0.004-0.311,0.004-0.611,0.004-0.922
		c0.008-0.363,0.008-0.725,0.008-1.094V9.536c0-0.366,0-0.729-0.008-1.092c0-0.307,0-0.614-0.004-0.921
		c-0.012-0.671-0.074-1.34-0.186-2.002c-0.109-0.662-0.317-1.304-0.619-1.903c-0.617-1.203-1.596-2.182-2.799-2.8
		c-0.602-0.303-1.244-0.514-1.908-0.627c-0.661-0.11-1.33-0.169-2-0.177c-0.305-0.005-0.617-0.011-0.922-0.013
		C110.859,0,110.494,0,110.135,0L110.135,0z"/>
	<path d="M8.445,39.125c-0.305,0-0.602-0.004-0.904-0.011c-0.626-0.009-1.251-0.062-1.869-0.163c-0.576-0.1-1.135-0.283-1.657-0.548
		c-0.517-0.262-0.989-0.604-1.397-1.017c-0.414-0.406-0.759-0.879-1.021-1.396c-0.265-0.521-0.448-1.08-0.543-1.657
		c-0.103-0.62-0.159-1.247-0.167-1.875c-0.006-0.211-0.015-0.913-0.015-0.913V8.444c0,0,0.009-0.691,0.015-0.895
		c0.008-0.627,0.063-1.253,0.166-1.872c0.096-0.579,0.279-1.139,0.543-1.662C1.857,3.498,2.2,3.026,2.612,2.618
		C3.023,2.206,3.496,1.86,4.014,1.595c0.521-0.263,1.078-0.446,1.653-0.544c0.62-0.102,1.247-0.156,1.875-0.164l0.902-0.012h102.769
		l0.913,0.013c0.623,0.007,1.244,0.062,1.858,0.163c0.581,0.099,1.144,0.283,1.671,0.548c1.037,0.535,1.883,1.381,2.415,2.42
		c0.261,0.52,0.44,1.076,0.535,1.649c0.104,0.624,0.162,1.255,0.174,1.887c0.003,0.283,0.003,0.587,0.003,0.89
		c0.008,0.375,0.008,0.732,0.008,1.092v20.929c0,0.363,0,0.718-0.008,1.075c0,0.325,0,0.623-0.004,0.93
		c-0.012,0.621-0.068,1.241-0.171,1.854c-0.093,0.581-0.275,1.145-0.54,1.67c-0.264,0.513-0.606,0.979-1.016,1.386
		c-0.408,0.414-0.881,0.759-1.399,1.022c-0.525,0.267-1.087,0.451-1.668,0.55c-0.618,0.102-1.243,0.155-1.869,0.163
		c-0.293,0.007-0.6,0.011-0.897,0.011l-1.084,0.002L8.445,39.125z"/>
</g>
<g id="robot">
	<path fill="#FFFFFF" d="M13.007,15.704H25.45v10.239c0,0-0.19,0.913-0.912,0.913c-0.722,0-1.387,0-1.387,0v3.285
		c0,0-0.057,1.386-1.386,1.386c-1.33,0-1.387-1.386-1.387-1.386V26.95h-2.279v3.286c0,0,0.02,1.254-1.425,1.235
		c0,0-1.329-0.019-1.329-1.33c0-1.311,0-3.249,0-3.249h-1.349c0,0-0.988,0.058-0.988-0.988
		C13.007,24.86,13.007,15.704,13.007,15.704z"/>
	<path fill="#FFFFFF" d="M26.276,17.053c0,0,0-1.349,1.349-1.349s1.358,1.159,1.358,1.358c0,0.199,0,5.879,0,5.879
		s0.133,1.269-1.269,1.269c-1.4,0-1.438-0.926-1.438-1.325S26.276,17.053,26.276,17.053z"/>
	<path fill="#FFFFFF" d="M9.397,17.053c0,0,0-1.349,1.349-1.349c1.349,0,1.358,1.159,1.358,1.358c0,0.199,0,5.879,0,5.879
		s0.133,1.269-1.268,1.269c-1.401,0-1.439-0.926-1.439-1.325S9.397,17.053,9.397,17.053z"/>
	<path fill="#FFFFFF" d="M22.239,10.428l1.076-1.592c0.182-0.258-0.046-0.318-0.046-0.318c-0.152-0.121-0.273,0.09-0.273,0.09
		l-1.115,1.661c-0.782-0.32-1.653-0.5-2.576-0.509c-0.953-0.01-1.859,0.167-2.674,0.494c-0.335-0.483-1.203-1.73-1.264-1.766
		c-0.075-0.045-0.182,0.046-0.182,0.046c-0.196,0.151-0.105,0.227-0.105,0.227l1.135,1.676c-1.739,0.843-2.981,2.405-3.222,4.319
		h12.453C25.213,12.836,23.983,11.269,22.239,10.428z"/>
	<circle cx="21.908" cy="12.39" r="0.694"/>
	<circle cx="16.578" cy="12.39" r="0.694"/>
</g>
<g id="android">
	<g>
		<path fill="#FFFFFF" d="M44.422,31.527v-2.106h-2.74c0,0-2.208-0.839-2.081-2.792c0,0,0.102-2.105,1.853-2.588h4.618v7.41h2.08
			v-9.542h-6.318c0,0-3.984,0.229-4.137,4.798c0,0,0.077,4.135,4.442,4.793L44.422,31.527z"/>
		<path fill="#FFFFFF" d="M99.917,29.518v1.928l5.476-0.074c0,0,3.978-0.279,3.93-4.746c0,0,0.237-4.363-3.903-4.746h-5.453v2.056
			h4.882c0,0,2.57,0.228,2.308,2.866c0,0,0.286,2.641-2.428,2.691L99.917,29.518z"/>
		<path fill="#FFFFFF" d="M62.02,29.404v1.93l5.477-0.077c0,0,3.978-0.278,3.927-4.745c0,0,0.239-4.365-3.903-4.744h-5.453v2.055
			h4.882c0,0,2.571,0.229,2.311,2.867c0,0,0.284,2.639-2.43,2.689L62.02,29.404z"/>
		<path fill="#FFFFFF" d="M52.313,31.451h-1.929l0.077-5.838c0,0,0.279-4.236,4.745-4.186c0,0,4.364-0.254,4.745,4.16v5.811h-2.054
			v-5.2c0,0-0.229-2.741-2.868-2.46c0,0-2.639-0.307-2.69,2.586L52.313,31.451z"/>
		<path fill="#FFFFFF" d="M73.599,23.924v-2.048h5.379c0,0,2.96,0.042,2.96,3.394c0,0,0.082,1.76-1.491,2.855
			c0,0-0.166,0.083-0.051,0.222c0.014,0.013,0.03,0.03,0.051,0.046c0.209,0.167,1.202,0.849,1.202,3.084h-2.071
			c0,0-0.124-2.627-2.213-2.627h-3.829v-2.277h5.133c0,0,1.2-0.062,1.157-1.407c0,0,0.146-1.262-1.404-1.262L73.599,23.924z"/>
		<path fill="#FFFFFF" d="M88.767,21.568c-2.755,0-4.986,2.227-4.986,4.974c0,2.749,2.231,4.976,4.986,4.976
			c2.754,0,4.986-2.227,4.986-4.976C93.753,23.795,91.521,21.568,88.767,21.568z M88.767,29.408c-1.586,0-2.873-1.283-2.873-2.866
			s1.287-2.866,2.873-2.866s2.871,1.283,2.871,2.866S90.353,29.408,88.767,29.408z"/>
		<rect x="95.76" y="21.897" fill="#FFFFFF" width="2.174" height="9.601"/>
	</g>
</g>
<text transform="matrix(1 0 0 1 37.6978 15.7041)" fill="#FFFFFF" font-family="'ArialMT'" font-size="8.5">DOWNLOAD FOR</text>
</svg>
